<?xml version="1.0" standalone="no"?>
<!DOCTYPE svg PUBLIC "-//W3C//DTD SVG 20010904//EN"
 "http://www.w3.org/TR/2001/REC-SVG-20010904/DTD/svg10.dtd">
<svg version="1.0" xmlns="http://www.w3.org/2000/svg"
 width="256.000000pt" height="256.000000pt" viewBox="0 0 256.000000 256.000000"
 preserveAspectRatio="xMidYMid meet">
<metadata>
Created by potrace 1.14, written by Peter Selinger 2001-2017
</metadata>
<g transform="translate(0.000000,256.000000) scale(0.100000,-0.100000)"
fill="#000000" stroke="none">
<path d="M301 2479 c-217 -43 -301 -319 -144 -476 55 -55 105 -76 190 -81 60
-3 80 0 126 21 l54 25 204 -204 c181 -181 202 -206 191 -222 -7 -9 -27 -46
-45 -82 -31 -62 -32 -70 -32 -181 l0 -117 43 -83 42 -83 -92 -94 -93 -93 -33
38 c-43 49 -108 182 -125 257 l-13 58 33 33 c29 29 33 40 33 84 0 41 -5 56
-28 82 -53 59 -161 48 -197 -21 -31 -60 -10 -137 45 -165 19 -10 30 -23 30
-36 0 -70 96 -282 164 -364 l25 -30 -76 -76 -75 -77 -52 24 c-77 36 -164 33
-244 -7 -102 -50 -154 -135 -155 -251 -1 -211 222 -348 410 -252 64 33 123
101 142 164 19 63 14 149 -13 205 l-24 50 75 76 75 77 73 -53 c138 -99 285
-145 465 -145 178 0 338 52 477 154 l60 44 76 -76 76 -77 -22 -40 c-31 -57
-31 -192 0 -250 76 -142 240 -195 382 -124 106 53 158 147 149 271 -5 74 -29
129 -78 178 -52 52 -104 74 -187 78 -60 3 -80 0 -126 -21 l-54 -25 -203 203
-202 202 31 55 c36 63 39 93 12 108 -32 17 -38 13 -85 -60 -77 -118 -178 -175
-311 -173 -198 3 -348 155 -348 353 0 198 150 350 348 353 129 2 235 -56 306
-166 45 -69 53 -77 80 -70 34 9 34 48 -1 109 l-32 57 94 94 93 94 33 -38 c44
-50 107 -182 126 -261 14 -59 13 -63 -5 -72 -28 -15 -49 -63 -49 -111 0 -33 6
-47 34 -75 30 -30 40 -34 85 -34 41 0 56 5 82 28 59 53 48 161 -21 197 -19 10
-30 23 -30 36 0 70 -96 282 -164 364 l-25 30 76 76 75 77 52 -24 c57 -27 142
-32 206 -13 63 19 131 78 164 142 96 188 -40 410 -252 410 -82 0 -144 -25
-199 -80 -56 -56 -77 -105 -81 -193 -2 -63 1 -83 21 -125 l25 -50 -75 -77 -76
-76 -60 44 c-139 102 -299 154 -477 154 -173 0 -305 -41 -451 -140 l-87 -58
-75 77 -75 76 25 50 c20 42 23 62 21 125 -4 88 -25 137 -81 193 -66 66 -163
95 -256 76z m144 -101 c32 -16 75 -60 92 -93 18 -34 20 -117 4 -159 l-12 -29
-33 36 c-80 88 -192 88 -272 0 l-33 -36 -12 29 c-16 42 -14 125 4 159 22 43
69 84 113 101 41 15 112 11 149 -8z m1811 7 c50 -15 99 -56 124 -104 16 -31
17 -117 1 -155 l-12 -29 -33 36 c-38 42 -90 67 -138 67 -44 0 -114 -36 -139
-71 -11 -16 -24 -27 -29 -24 -5 3 -13 27 -19 54 -21 99 35 196 130 226 57 18
57 18 115 0z m-1835 -304 c41 -42 38 -58 -16 -69 -56 -12 -135 3 -135 25 0 27
56 73 90 73 22 0 41 -9 61 -29z m1840 0 c41 -42 38 -58 -16 -69 -56 -12 -135
3 -135 25 0 27 56 73 90 73 22 0 41 -9 61 -29z m-793 -112 c41 -11 92 -29 115
-40 49 -24 167 -101 167 -109 0 -3 -42 -47 -93 -98 l-93 -92 -83 42 -83 43
-118 0 -118 0 -83 -43 -83 -42 -94 92 -93 93 36 32 c20 17 66 47 103 66 162
85 341 104 520 56z m-924 -665 c9 -8 16 -19 16 -24 0 -11 -29 -40 -40 -40 -11
0 -40 29 -40 40 0 11 29 40 40 40 5 0 16 -7 24 -16z m1520 0 c9 -8 16 -19 16
-24 0 -5 -7 -16 -16 -24 -8 -9 -19 -16 -24 -16 -11 0 -40 29 -40 40 0 5 7 16
16 24 8 9 19 16 24 16 5 0 16 -7 24 -16z m-980 -419 c80 -40 80 -40 197 -40
l117 0 83 43 83 42 94 -92 93 -93 -38 -33 c-51 -45 -182 -107 -268 -128 -200
-48 -450 5 -599 128 l-38 31 93 93 c52 52 96 93 99 92 3 -2 41 -21 84 -43z
m-639 -347 c32 -16 75 -60 92 -93 18 -34 20 -117 4 -159 l-12 -29 -33 36 c-80
88 -192 88 -272 0 l-33 -36 -12 29 c-16 42 -14 125 4 159 22 43 69 84 113 101
41 15 112 11 149 -8z m1840 0 c32 -16 75 -60 92 -93 18 -34 20 -117 4 -159
l-12 -29 -33 36 c-38 41 -90 67 -136 67 -46 0 -98 -26 -136 -67 l-33 -36 -12
29 c-16 42 -14 125 4 159 22 43 69 84 113 101 41 15 112 11 149 -8z m-1864
-297 c41 -42 38 -58 -16 -69 -56 -12 -135 3 -135 25 0 27 56 73 90 73 22 0 41
-9 61 -29z m1840 0 c41 -42 38 -58 -16 -69 -56 -12 -135 3 -135 25 0 27 56 73
90 73 22 0 41 -9 61 -29z"/>
<path d="M316 2334 c-20 -20 -20 -68 0 -88 8 -9 28 -16 44 -16 36 0 60 24 60
60 0 36 -24 60 -60 60 -16 0 -36 -7 -44 -16z"/>
<path d="M2156 2334 c-9 -8 -16 -28 -16 -44 0 -16 7 -36 16 -44 8 -9 28 -16
44 -16 16 0 36 7 44 16 9 8 16 28 16 44 0 16 -7 36 -16 44 -8 9 -28 16 -44 16
-16 0 -36 -7 -44 -16z"/>
<path d="M316 494 c-20 -20 -20 -68 0 -88 8 -9 28 -16 44 -16 36 0 60 24 60
60 0 36 -24 60 -60 60 -16 0 -36 -7 -44 -16z"/>
<path d="M2156 494 c-9 -8 -16 -28 -16 -44 0 -16 7 -36 16 -44 8 -9 28 -16 44
-16 36 0 60 24 60 60 0 36 -24 60 -60 60 -16 0 -36 -7 -44 -16z"/>
<path d="M1253 1562 c-6 -4 -15 -20 -18 -35 -4 -16 -18 -35 -32 -44 -33 -22
-53 -64 -53 -114 0 -35 6 -48 39 -80 30 -30 46 -39 73 -39 64 0 96 -47 68
-101 -23 -43 -110 -13 -110 38 0 49 -74 56 -86 8 -9 -37 33 -115 73 -135 19
-8 33 -23 33 -33 0 -31 20 -57 43 -57 30 0 47 18 47 49 0 18 9 31 29 43 40 22
63 60 68 111 9 79 -48 149 -131 161 -48 7 -67 26 -59 57 11 42 71 33 80 -13
10 -49 69 -59 86 -14 11 28 -14 86 -48 113 -20 16 -35 37 -35 49 0 36 -36 56
-67 36z"/>
<path d="M1644 1306 c-3 -8 -4 -25 -2 -38 2 -19 9 -23 38 -23 33 0 35 2 35 35
0 32 -3 35 -33 38 -21 2 -34 -2 -38 -12z"/>
</g>
</svg>
