<?xml version="1.0" standalone="no"?>
<!DOCTYPE svg PUBLIC "-//W3C//DTD SVG 20010904//EN"
 "http://www.w3.org/TR/2001/REC-SVG-20010904/DTD/svg10.dtd">
<svg version="1.0" xmlns="http://www.w3.org/2000/svg"
 width="32.000000pt" height="32.000000pt" viewBox="0 0 32.000000 32.000000"
 preserveAspectRatio="xMidYMid meet">

<g transform="translate(0.000000,32.000000) scale(0.100000,-0.100000)"
fill="#000000" stroke="none">
<path d="M95 306 c-101 -44 -125 -178 -46 -257 65 -65 157 -65 222 0 124 124
-15 327 -176 257z m13 -129 c2 -39 8 -60 18 -64 7 -3 14 -11 14 -19 0 -10 -13
-14 -45 -14 -32 0 -45 4 -45 14 0 8 7 16 15 20 10 3 15 19 15 46 0 27 -5 43
-15 46 -27 11 -17 36 13 32 26 -3 27 -6 30 -61z m146 47 c21 -21 21 -107 0
-128 -20 -21 -63 -20 -86 1 -23 20 -24 90 -2 121 18 26 65 30 88 6z"/>
<path d="M194 196 c-9 -23 0 -79 13 -84 21 -6 38 44 25 73 -13 28 -30 33 -38
11z"/>
</g>
</svg>
