<svg
   width="64pt"
   height="64pt"
   viewBox="0 0 22.577778 22.577778"
   version="1.1"
   id="svg831"
   inkscape:version="1.1.2 (1:1.1+202202050950+0a00cf5339)"
   sodipodi:docname="27 - Store Signboard.svg"
   inkscape:export-filename="/media/taufikramadhan/Data/Tr Design Studio/Project Design/TR Creative Design/Icon Design/Project Hiring/Icon Icons/019 - Commerce And Shopping/5 - Send/27 - Store Signboard.png"
   inkscape:export-xdpi="576"
   inkscape:export-ydpi="576"
   xmlns:inkscape="http://www.inkscape.org/namespaces/inkscape"
   xmlns:sodipodi="http://sodipodi.sourceforge.net/DTD/sodipodi-0.dtd"
   xmlns="http://www.w3.org/2000/svg"
   xmlns:svg="http://www.w3.org/2000/svg"
   xmlns:rdf="http://www.w3.org/1999/02/22-rdf-syntax-ns#"
   xmlns:cc="http://creativecommons.org/ns#"
   xmlns:dc="http://purl.org/dc/elements/1.1/">
  <defs
     id="defs825">
    <pattern
       id="EMFhbasepattern"
       patternUnits="userSpaceOnUse"
       width="6"
       height="6"
       x="0"
       y="0" />
    <pattern
       id="EMFhbasepattern-9"
       patternUnits="userSpaceOnUse"
       width="6"
       height="6"
       x="0"
       y="0" />
    <pattern
       id="EMFhbasepattern-0"
       patternUnits="userSpaceOnUse"
       width="6"
       height="6"
       x="0"
       y="0" />
    <pattern
       id="EMFhbasepattern-7"
       patternUnits="userSpaceOnUse"
       width="6"
       height="6"
       x="0"
       y="0" />
    <pattern
       id="EMFhbasepattern-2"
       patternUnits="userSpaceOnUse"
       width="6"
       height="6"
       x="0"
       y="0" />
    <pattern
       id="EMFhbasepattern-98"
       patternUnits="userSpaceOnUse"
       width="6"
       height="6"
       x="0"
       y="0" />
    <pattern
       id="EMFhbasepattern-6"
       patternUnits="userSpaceOnUse"
       width="6"
       height="6"
       x="0"
       y="0" />
    <pattern
       id="EMFhbasepattern-01"
       patternUnits="userSpaceOnUse"
       width="6"
       height="6"
       x="0"
       y="0" />
    <pattern
       id="EMFhbasepattern-07"
       patternUnits="userSpaceOnUse"
       width="6"
       height="6"
       x="0"
       y="0" />
    <pattern
       id="EMFhbasepattern-8"
       patternUnits="userSpaceOnUse"
       width="6"
       height="6"
       x="0"
       y="0" />
    <pattern
       id="EMFhbasepattern-4"
       patternUnits="userSpaceOnUse"
       width="6"
       height="6"
       x="0"
       y="0" />
    <pattern
       id="EMFhbasepattern-40"
       patternUnits="userSpaceOnUse"
       width="6"
       height="6"
       x="0"
       y="0" />
    <pattern
       id="EMFhbasepattern-08"
       patternUnits="userSpaceOnUse"
       width="6"
       height="6"
       x="0"
       y="0" />
    <pattern
       id="EMFhbasepattern-04"
       patternUnits="userSpaceOnUse"
       width="6"
       height="6"
       x="0"
       y="0" />
    <pattern
       id="EMFhbasepattern-014"
       patternUnits="userSpaceOnUse"
       width="6"
       height="6"
       x="0"
       y="0" />
    <pattern
       id="EMFhbasepattern-27"
       patternUnits="userSpaceOnUse"
       width="6"
       height="6"
       x="0"
       y="0" />
    <pattern
       id="EMFhbasepattern-09"
       patternUnits="userSpaceOnUse"
       width="6"
       height="6"
       x="0"
       y="0" />
    <pattern
       id="EMFhbasepattern-5"
       patternUnits="userSpaceOnUse"
       width="6"
       height="6"
       x="0"
       y="0" />
    <pattern
       id="EMFhbasepattern-018"
       patternUnits="userSpaceOnUse"
       width="6"
       height="6"
       x="0"
       y="0" />
  </defs>
  <sodipodi:namedview
     id="base"
     pagecolor="#ffffff"
     bordercolor="#666666"
     borderopacity="1.0"
     inkscape:pageopacity="0.0"
     inkscape:pageshadow="2"
     inkscape:zoom="6.2578126"
     inkscape:cx="56.169787"
     inkscape:cy="53.533083"
     inkscape:document-units="pt"
     inkscape:current-layer="layer1"
     showgrid="false"
     units="pt"
     inkscape:window-width="1366"
     inkscape:window-height="705"
     inkscape:window-x="0"
     inkscape:window-y="31"
     inkscape:window-maximized="1"
     inkscape:pagecheckerboard="true"
     inkscape:showpageshadow="false"
     inkscape:object-paths="true"
     inkscape:snap-intersection-paths="true"
     inkscape:snap-smooth-nodes="true"
     inkscape:snap-midpoints="true"
     showguides="true"
     inkscape:snap-bbox="true"
     inkscape:bbox-nodes="true"
     inkscape:snap-nodes="false"
     inkscape:snap-global="true"
     inkscape:document-rotation="0">
    <inkscape:grid
       type="xygrid"
       id="grid1378" />
    <sodipodi:guide
       position="0.97013831,21.607643"
       orientation="78.000048,0"
       id="guide1380"
       inkscape:locked="false" />
    <sodipodi:guide
       position="0.97013831,0.97013129"
       orientation="0,78.000005"
       id="guide1382"
       inkscape:locked="false" />
    <sodipodi:guide
       position="21.607639,0.97013129"
       orientation="-78.000048,0"
       id="guide1384"
       inkscape:locked="false" />
    <sodipodi:guide
       position="21.607639,21.607643"
       orientation="0,-78.000005"
       id="guide1386"
       inkscape:locked="false" />
  </sodipodi:namedview>
  <metadata
     id="metadata828">
    <rdf:RDF>
      <cc:Work
         rdf:about="">
        <dc:format>image/svg+xml</dc:format>
        <dc:type
           rdf:resource="http://purl.org/dc/dcmitype/StillImage" />
      </cc:Work>
    </rdf:RDF>
  </metadata>
  <g
     inkscape:label="Icon"
     inkscape:groupmode="layer"
     id="layer1"
     transform="translate(0,-274.42223)">
    <g
       id="g1183689"
       style="display:inline;stroke-width:0.794866"
       transform="matrix(1.2580739,0,0,1.2580739,0.63841944,-192.40976)">
      <path
         style="color:#000000;fill:#9a605a;stroke:none;stroke-width:0.794866;stroke-linecap:round;stroke-linejoin:round;stroke-miterlimit:1.5;-inkscape-stroke:none"
         d="m 1.0585937,374.61719 a 0.26460996,0.26460996 0 0 0 -0.26562495,0.26562 v 3.43946 a 0.26460996,0.26460996 0 0 0 0.078125,0.1875 l 0.0566406,0.0566 -0.0351563,0.0273 a 0.26460996,0.26460996 0 0 0 -0.0996094,0.20703 v 2.43164 a 0.26460996,0.26460996 0 0 0 0.26562495,0.26563 H 13.494141 a 0.26460996,0.26460996 0 0 0 0.263672,-0.26563 V 377 a 0.26460996,0.26460996 0 0 0 -0.07617,-0.1875 l -0.05664,-0.0566 0.03516,-0.0293 a 0.26460996,0.26460996 0 0 0 0.09766,-0.20508 v -1.63867 a 0.26460996,0.26460996 0 0 0 -0.263672,-0.26562 z"
         id="path159599" />
      <path
         id="path1074390"
         style="color:#000000;fill:#311a12;fill-opacity:1;stroke:none;stroke-width:0.794866;stroke-linecap:round;stroke-linejoin:round;stroke-miterlimit:1.5;-inkscape-stroke:none"
         d="m 1.0588501,374.61696 a 0.26460996,0.26460996 0 0 0 -0.2661336,0.26562 v 0.26355 l 12.1723835,5.3e-4 a 0.26460996,0.26460996 0 0 1 0.26355,0.26562 v 1.63866 a 0.26460996,0.26460996 0 0 1 -0.09767,0.20463 l -0.03514,0.0295 0.05684,0.0568 a 0.26460996,0.26460996 0 0 1 0.07596,0.18706 v 3.96927 h 0.265617 a 0.26460996,0.26460996 0 0 0 0.26355,-0.26562 v -4.23281 a 0.26460996,0.26460996 0 0 0 -0.07596,-0.18707 l -0.05684,-0.0568 0.03514,-0.0294 a 0.26460996,0.26460996 0 0 0 0.09767,-0.20464 v -1.63866 a 0.26460996,0.26460996 0 0 0 -0.26355,-0.26562 z" />
      <path
         id="path159605"
         style="color:#000000;fill:#734845;stroke:none;stroke-width:3.00422;stroke-linecap:round;stroke-linejoin:round;stroke-miterlimit:1.5;-inkscape-stroke:none"
         d="m 4.0019531,357.35547 a 1.0001006,1.0001006 0 0 0 -1.0058593,1.00391 v 4.99804 H 51.998047 v -4.99609 a 1.0001006,1.0001006 0 0 0 -0.996094,-1.00391 z"
         transform="matrix(0.26458334,0,0,0.26458334,0,280.06666)" />
      <path
         id="path159611"
         style="color:#000000;fill:#734845;stroke:none;stroke-width:3.00422;stroke-linecap:round;stroke-linejoin:round;stroke-miterlimit:1.5;-inkscape-stroke:none"
         d="m 2.9960938,377.36133 v 4.99805 a 1.0001006,1.0001006 0 0 0 1.0058593,1.0039 H 51.001953 a 1.0001006,1.0001006 0 0 0 0.996094,-1.0039 v -4.99805 z"
         transform="matrix(0.26458334,0,0,0.26458334,0,280.06666)" />
      <path
         style="color:#000000;fill:#d0ad9b;stroke:none;stroke-width:0.794866;stroke-linecap:round;stroke-linejoin:round;stroke-miterlimit:1.5;-inkscape-stroke:none"
         d="m 1.0585937,380.96875 c -0.43524173,0 -0.79492461,0.35773 -0.79492182,0.79297 v 0.5293 a 0.26460945,0.26460945 0 0 0 0.26562499,0.26367 H 10.054688 a 0.26460945,0.26460945 0 0 0 0.263671,-0.26367 v -1.0586 a 0.26460945,0.26460945 0 0 0 -0.263671,-0.26367 z"
         id="path159593" />
      <path
         style="color:#000000;fill:#ececec;stroke:none;stroke-width:0.794866;stroke-linecap:round;stroke-linejoin:round;stroke-miterlimit:1.5;-inkscape-stroke:none"
         d="m 5.8203125,377 a 0.2645835,0.2645835 0 0 0 -0.2636719,0.26367 0.2645835,0.2645835 0 0 0 0.2636719,0.26563 H 10.583984 A 0.2645835,0.2645835 0 0 0 10.847656,377.26367 0.2645835,0.2645835 0 0 0 10.583984,377 Z"
         id="path444450" />
      <path
         style="color:#000000;fill:#ececec;stroke:none;stroke-width:0.794866;stroke-linecap:round;stroke-linejoin:round;stroke-miterlimit:1.5;-inkscape-stroke:none"
         d="m 5.8203125,378.05664 a 0.2645835,0.2645835 0 0 0 -0.2636719,0.26563 0.2645835,0.2645835 0 0 0 0.2636719,0.26367 h 2.6464844 a 0.2645835,0.2645835 0 0 0 0.2636719,-0.26367 0.2645835,0.2645835 0 0 0 -0.2636719,-0.26563 z"
         id="path444532" />
      <path
         style="color:#000000;clip-rule:evenodd;fill:#ececec;fill-rule:evenodd;stroke:none;stroke-width:0.794866;stroke-linecap:round;stroke-linejoin:round;stroke-miterlimit:1.5;-inkscape-stroke:none"
         d="m 2.8535156,377 a 0.26460996,0.26460996 0 0 0 -0.2617187,0.29883 l 0.1425781,1.05859 a 0.26460996,0.26460996 0 0 0 0.2636719,0.22852 h 1.4492187 a 0.26460996,0.26460996 0 0 0 0.2558594,-0.19727 l 0.2753906,-1.05859 A 0.26460996,0.26460996 0 0 0 4.7226562,377 Z"
         id="path159625" />
      <path
         style="color:#000000;clip-rule:evenodd;fill:#ececec;fill-rule:evenodd;stroke:none;stroke-width:0.794866;stroke-linecap:round;stroke-linejoin:round;stroke-miterlimit:1.5;-inkscape-stroke:none"
         d="M 2.3808594,376.73437 A 0.2645835,0.2645835 0 0 0 2.1171875,377 a 0.2645835,0.2645835 0 0 0 0.2636719,0.26367 h 0.2050781 l 0.00781,0.0469 a 0.2645835,0.2645835 0 0 0 0.3066406,0.21289 0.2645835,0.2645835 0 0 0 0.2148438,-0.30664 l -0.046875,-0.26368 a 0.26460996,0.26460996 0 0 0 -0.2617188,-0.21875 z"
         id="path61558-0-0" />
      <path
         style="color:#000000;clip-rule:evenodd;fill:#ececec;fill-rule:evenodd;stroke:none;stroke-width:0.794866;stroke-linecap:round;stroke-linejoin:round;stroke-miterlimit:1.5;-inkscape-stroke:none"
         d="m 3.1367188,378.85156 a 0.2645835,0.2645835 0 0 0 -0.265625,0.26367 0.2645835,0.2645835 0 0 0 0.265625,0.26563 h 0.125 a 0.2645835,0.2645835 0 0 0 0.265625,-0.26563 0.2645835,0.2645835 0 0 0 -0.265625,-0.26367 z"
         id="path61560-9-6" />
      <path
         style="color:#000000;clip-rule:evenodd;fill:#ececec;fill-rule:evenodd;stroke:none;stroke-width:0.794866;stroke-linecap:round;stroke-linejoin:round;stroke-miterlimit:1.5;-inkscape-stroke:none"
         d="m 4.1933594,378.85156 a 0.2645835,0.2645835 0 0 0 -0.2636719,0.26367 0.2645835,0.2645835 0 0 0 0.2636719,0.26563 h 0.1269531 a 0.2645835,0.2645835 0 0 0 0.265625,-0.26563 0.2645835,0.2645835 0 0 0 -0.265625,-0.26367 z"
         id="path362542-2" />
      <path
         style="color:#000000;fill:#ececec;stroke:none;stroke-width:0.794866;stroke-linecap:round;stroke-linejoin:round;stroke-miterlimit:1.5;-inkscape-stroke:none"
         d="m 11.642578,377 a 0.2645835,0.2645835 0 0 0 -0.265625,0.26367 0.2645835,0.2645835 0 0 0 0.265625,0.26563 h 0.527344 A 0.2645835,0.2645835 0 0 0 12.435547,377.26367 0.2645835,0.2645835 0 0 0 12.169922,377 Z"
         id="path444760" />
      <path
         id="path1145827"
         style="color:#000000;fill:#c49882;fill-opacity:1;stroke:none;stroke-width:3.00422;stroke-linecap:round;stroke-linejoin:round;stroke-miterlimit:1.5;-inkscape-stroke:none"
         d="m 17.001953,381.36133 v 5.99414 h 21 a 1.0000987,1.0000987 0 0 0 0.996094,-0.99609 v -4 a 1.0000987,1.0000987 0 0 0 -0.996094,-0.99805 z"
         transform="matrix(0.26458334,0,0,0.26458334,0,280.06666)" />
      <path
         style="color:#000000;fill:#fd913c;stroke:none;stroke-width:3.00422;stroke-linecap:round;stroke-linejoin:round;stroke-miterlimit:1.5;-inkscape-stroke:none"
         d="m 40.998047,370.35547 c -5.511003,0 -10.001953,4.49099 -10.001953,10.00195 a 1.0001006,1.0001006 0 0 0 0,0.008 c 6.8e-5,0.0104 -1.08e-4,0.0209 0,0.0312 l -9.433594,0.36133 c -1.375224,0.0529 -2.560547,1.18218 -2.560547,2.60547 v 12.39453 c 0,1.42281 1.17483,2.60547 2.597656,2.60547 h 38.798829 c 1.422825,0 2.597656,-1.18266 2.597656,-2.60547 v -12.39453 c 0,-1.42329 -1.185162,-2.55282 -2.560547,-2.60547 l -9.433594,-0.36133 c 1.09e-4,-0.0104 -7e-5,-0.0209 0,-0.0312 a 1.0001006,1.0001006 0 0 0 0,-0.002 1.0001006,1.0001006 0 0 0 0,-0.002 1.0001006,1.0001006 0 0 0 0,-0.002 1.0001006,1.0001006 0 0 0 0,-0.002 c 0,-5.51096 -4.492901,-10.00195 -10.003906,-10.00195 z"
         transform="matrix(0.26458334,0,0,0.26458334,0,280.06666)"
         id="path159658" />
      <path
         style="color:#000000;clip-rule:evenodd;fill:#bb570f;fill-rule:evenodd;stroke:none;stroke-width:0.794866;stroke-linecap:round;stroke-linejoin:round;stroke-miterlimit:1.5;-inkscape-stroke:none"
         d="m 10.431641,381.76172 a 0.2645835,0.2645835 0 0 0 -0.265625,0.26367 0.2645835,0.2645835 0 0 0 0.265625,0.26563 h 0.126953 a 0.2645835,0.2645835 0 0 0 0.263672,-0.26563 0.2645835,0.2645835 0 0 0 -0.263672,-0.26367 z"
         id="path61560-9-6-8" />
      <path
         style="color:#000000;clip-rule:evenodd;fill:#bb570f;fill-rule:evenodd;stroke:none;stroke-width:0.794866;stroke-linecap:round;stroke-linejoin:round;stroke-miterlimit:1.5;-inkscape-stroke:none"
         d="m 11.490234,381.76172 a 0.2645835,0.2645835 0 0 0 -0.265625,0.26367 0.2645835,0.2645835 0 0 0 0.265625,0.26563 h 0.125 a 0.2645835,0.2645835 0 0 0 0.265625,-0.26563 0.2645835,0.2645835 0 0 0 -0.265625,-0.26367 z"
         id="path362542-2-7" />
      <path
         style="color:#000000;fill:#bb570f;stroke:none;stroke-width:0.794866;stroke-linecap:round;stroke-linejoin:round;stroke-miterlimit:1.5;-inkscape-stroke:none"
         d="m 6.6152344,382.82031 a 0.2645835,0.2645835 0 0 0 -0.265625,0.26367 0.2645835,0.2645835 0 0 0 0.265625,0.26563 h 8.7304686 a 0.2645835,0.2645835 0 0 0 0.265625,-0.26563 0.2645835,0.2645835 0 0 0 -0.265625,-0.26367 z"
         id="path453470" />
      <path
         style="color:#000000;fill:#bb570f;stroke:none;stroke-width:0.794866;stroke-linecap:round;stroke-linejoin:round;stroke-miterlimit:1.5;-inkscape-stroke:none"
         d="m 8.7304688,383.87891 a 0.2645835,0.2645835 0 0 0 -0.2636719,0.26367 0.2645835,0.2645835 0 0 0 0.2636719,0.26562 h 4.4980472 a 0.2645835,0.2645835 0 0 0 0.265625,-0.26562 0.2645835,0.2645835 0 0 0 -0.265625,-0.26367 z"
         id="path453588" />
      <path
         style="color:#000000;fill:#143441;fill-opacity:1;stroke:none;stroke-width:0.794866;stroke-linecap:round;stroke-linejoin:round;stroke-miterlimit:1.5;-inkscape-stroke:none"
         d="m 6.0859375,384.14307 a 0.2645835,0.2645835 0 0 0 -0.265625,0.26367 0.2645835,0.2645835 0 0 0 0.265625,0.26562 0.2645835,0.2645835 0 0 0 0.2636719,-0.26562 0.2645835,0.2645835 0 0 0 -0.2636719,-0.26367 z"
         id="path453680" />
      <path
         style="color:#000000;fill:#143441;fill-opacity:1;stroke:none;stroke-width:0.794866;stroke-linecap:round;stroke-linejoin:round;stroke-miterlimit:1.5;-inkscape-stroke:none"
         d="m 15.610417,384.14307 a 0.2645835,0.2645835 0 0 0 -0.265625,0.26367 0.2645835,0.2645835 0 0 0 0.265625,0.26562 0.2645835,0.2645835 0 0 0 0.263672,-0.26562 0.2645835,0.2645835 0 0 0 -0.263672,-0.26367 z"
         id="path454198" />
      <path
         style="color:#000000;fill:#bb570f;stroke:none;stroke-width:0.794866;stroke-linecap:round;stroke-linejoin:round;stroke-miterlimit:1.5;-inkscape-stroke:none"
         d="m 7.2753906,381.76172 a 0.2645835,0.2645835 0 0 0 -0.2636719,0.26367 0.2645835,0.2645835 0 0 0 0.2636719,0.26563 h 1.8535157 a 0.2645835,0.2645835 0 0 0 0.2636718,-0.26563 0.2645835,0.2645835 0 0 0 -0.2636718,-0.26367 z"
         id="path462536" />
      <path
         style="color:#000000;fill:#bb570f;stroke:none;stroke-width:0.794866;stroke-linecap:round;stroke-linejoin:round;stroke-miterlimit:1.5;-inkscape-stroke:none"
         d="m 12.568359,381.76172 a 0.2645835,0.2645835 0 0 0 -0.265625,0.26367 0.2645835,0.2645835 0 0 0 0.265625,0.26563 h 1.851563 a 0.2645835,0.2645835 0 0 0 0.263672,-0.26563 0.2645835,0.2645835 0 0 0 -0.263672,-0.26367 z"
         id="path462618" />
      <path
         style="color:#000000;clip-rule:evenodd;fill:#bb570f;fill-rule:evenodd;stroke:none;stroke-width:0.794866;stroke-linecap:round;stroke-linejoin:round;stroke-miterlimit:1.5;-inkscape-stroke:none"
         d="m 10.150391,379.91016 a 0.26460996,0.26460996 0 0 0 -0.2636722,0.29882 l 0.1445312,1.0586 a 0.26460996,0.26460996 0 0 0 0.261719,0.23047 h 1.449219 a 0.26460996,0.26460996 0 0 0 0.255859,-0.19922 l 0.277344,-1.0586 a 0.26460996,0.26460996 0 0 0 -0.25586,-0.33007 z"
         id="path159648" />
      <path
         style="color:#000000;clip-rule:evenodd;fill:#bb570f;fill-rule:evenodd;stroke:none;stroke-width:0.794866;stroke-linecap:round;stroke-linejoin:round;stroke-miterlimit:1.5;-inkscape-stroke:none"
         d="m 9.6777344,379.64453 a 0.2645835,0.2645835 0 0 0 -0.265625,0.26563 0.2645835,0.2645835 0 0 0 0.265625,0.26367 h 0.203125 l 0.00781,0.0469 a 0.2645835,0.2645835 0 0 0 0.3066416,0.21485 0.2645835,0.2645835 0 0 0 0.214843,-0.30664 l -0.04687,-0.26563 a 0.26460996,0.26460996 0 0 0 -0.259765,-0.21875 z"
         id="path61558-0-0-1" />
      <path
         id="path1078492"
         style="color:#000000;fill:#734845;stroke:none;stroke-width:3.00422;stroke-linecap:round;stroke-linejoin:round;stroke-miterlimit:1.5;-inkscape-stroke:none"
         d="m 4.0019531,357.35547 a 1.0001006,1.0001006 0 0 0 -1.0058593,1.00391 v 4.99804 H 51.998047 v -4.99609 a 1.0001006,1.0001006 0 0 0 -0.996094,-1.00391 z"
         transform="matrix(0.26458334,0,0,0.26458334,0,280.06666)" />
      <path
         id="path1078494"
         style="color:#000000;fill:#66342d;fill-opacity:1;stroke:none;stroke-width:0.794866;stroke-linecap:round;stroke-linejoin:round;stroke-miterlimit:1.5;-inkscape-stroke:none"
         d="m 1.0588501,374.61697 a 0.26460996,0.26460996 0 0 0 -0.2661336,0.26561 v 0.26355 l 12.1723835,5.2e-4 a 0.26460996,0.26460996 0 0 1 0.26355,0.26562 v 0.79271 h 0.529167 v -1.32188 a 0.26460996,0.26460996 0 0 0 -0.26355,-0.26562 z" />
      <path
         id="path1109507"
         style="color:#000000;fill:#fd750d;fill-opacity:1;stroke:none;stroke-width:0.794866;stroke-linecap:round;stroke-linejoin:round;stroke-miterlimit:1.5;-inkscape-stroke:none"
         d="m 15.461072,381.33773 c 0.363904,0.0139 0.677478,0.31279 0.677478,0.68937 v 3.27938 c 0,0.0497 -0.0058,0.0983 -0.01602,0.14522 0.30939,-0.0669 0.545187,-0.34664 0.545187,-0.67438 v -3.27939 c 0,-0.37658 -0.313574,-0.67543 -0.677478,-0.68936 l -2.495972,-0.0956 c 2.9e-5,-0.003 -1.8e-5,-0.006 0,-0.008 v -5.1e-4 -5.2e-4 -5.1e-4 -5.2e-4 c 0,-1.4581 -1.188747,-2.64635 -2.646867,-2.64635 v -10e-6 c -0.8635107,0 -1.6326787,0.41664 -2.1161497,1.05937 0.442571,-0.33292 0.992375,-0.53021 1.5869827,-0.53021 1.45812,0 2.646867,1.18825 2.646867,2.64635 z"
         sodipodi:nodetypes="csscssccscccssscscc" />
    </g>
  </g>
</svg>
