<?xml version="1.0" standalone="no"?>
<!DOCTYPE svg PUBLIC "-//W3C//DTD SVG 20010904//EN"
 "http://www.w3.org/TR/2001/REC-SVG-20010904/DTD/svg10.dtd">
<svg version="1.0" xmlns="http://www.w3.org/2000/svg"
 width="716.000000pt" height="276.000000pt" viewBox="0 0 716.000000 276.000000"
 preserveAspectRatio="xMidYMid meet">

<g transform="translate(0.000000,276.000000) scale(0.100000,-0.100000)"
fill="#000000" stroke="none">
<path d="M0 1380 l0 -1380 3580 0 3580 0 0 1380 0 1380 -3580 0 -3580 0 0
-1380z m3968 1138 c1 -49 6 -88 11 -88 4 0 20 14 36 30 23 24 37 30 69 30 l41
0 -42 -41 c-24 -22 -43 -42 -43 -43 0 -2 21 -25 48 -52 l47 -49 -39 -3 c-33
-3 -44 2 -75 32 -46 45 -59 45 -57 4 1 -30 -2 -33 -29 -33 l-30 0 2 85 c1 47
2 116 2 153 l1 68 28 -3 c27 -3 27 -3 30 -90z m665 70 c13 -20 -6 -48 -34 -48
-22 0 -35 36 -18 56 15 18 38 15 52 -8z m-1444 -76 c14 -35 31 -64 36 -64 6 0
22 28 37 63 25 60 29 64 62 67 20 2 36 0 36 -5 0 -4 9 -62 20 -128 25 -155 26
-147 -12 -143 l-33 3 -9 78 c-5 42 -12 77 -16 77 -4 0 -20 -30 -36 -67 -29
-72 -42 -93 -54 -93 -4 0 -22 36 -40 80 -18 44 -36 80 -40 80 -4 0 -10 -26
-14 -57 -11 -95 -15 -103 -47 -103 -21 0 -29 5 -29 18 0 26 40 243 46 254 3 5
20 8 37 6 27 -3 33 -10 56 -66z m1311 12 c0 -17 6 -28 20 -31 13 -3 20 -14 20
-29 0 -17 -6 -24 -20 -24 -18 0 -20 -7 -20 -70 l0 -70 -30 0 -30 0 0 64 c0 36
-4 68 -10 71 -5 3 -10 17 -10 30 0 13 5 27 10 30 6 3 10 17 10 31 0 20 5 24
30 24 26 0 30 -4 30 -26z m-872 -35 l42 2 0 -94 0 -94 -86 -1 c-78 -1 -89 2
-110 23 -18 18 -24 35 -24 67 0 72 44 114 105 101 17 -3 49 -5 73 -4z m242
-25 c0 -20 -5 -24 -28 -24 -41 0 -52 -17 -52 -82 0 -58 0 -58 -30 -58 l-30 0
0 96 0 97 43 -6 c23 -3 49 -2 56 3 22 13 41 1 41 -26z m441 26 c27 -8 41 -19
53 -44 25 -53 22 -56 -52 -56 -38 0 -72 -3 -75 -6 -3 -4 -2 -15 4 -26 9 -18
17 -19 70 -13 63 7 77 -3 37 -29 -38 -23 -65 -28 -105 -17 -87 24 -99 152 -18
187 37 16 41 16 86 4z m313 -3 c14 -10 16 -26 14 -97 l-3 -85 -30 0 -30 0 -3
83 c-3 102 11 129 52 99z m254 -9 c8 -7 12 -39 12 -94 l0 -84 -30 0 -30 0 0
64 c0 69 -14 92 -49 81 -21 -6 -34 -45 -31 -92 3 -48 1 -53 -30 -53 l-30 0 0
96 0 97 43 -5 c23 -3 53 -2 67 2 27 8 58 3 78 -12z m238 12 c28 0 43 -4 47
-14 3 -8 4 -61 2 -117 -4 -88 -8 -105 -26 -125 -39 -42 -124 -43 -168 -3 -42
40 -21 47 72 24 31 -8 57 8 57 36 0 16 -6 17 -48 12 -41 -4 -52 -2 -75 18 -71
62 -15 192 73 173 14 -3 44 -5 66 -4z m402 0 l42 1 0 -94 0 -94 -84 -1 c-78
-1 -87 1 -110 25 -20 19 -26 36 -26 67 0 69 44 111 105 100 17 -3 49 -5 73 -4z
m265 -2 l47 2 0 -111 0 -111 -34 -34 c-27 -27 -42 -34 -72 -34 -44 0 -104 32
-104 55 0 17 55 22 65 5 17 -27 85 1 85 36 0 11 -11 13 -53 8 -42 -5 -56 -3
-75 13 -29 23 -41 93 -22 128 16 30 69 56 95 48 11 -4 41 -6 68 -5z m246 1
c31 -11 61 -52 61 -84 0 -12 -13 -15 -69 -15 -74 0 -94 -11 -68 -38 14 -13 24
-14 61 -5 75 17 89 -14 19 -43 -47 -20 -97 -9 -128 28 -47 55 -25 138 40 157
41 13 48 13 84 0z m495 5 c24 -9 20 -44 -5 -44 -37 0 -59 -19 -59 -50 0 -33
31 -60 61 -53 15 4 19 0 19 -20 0 -29 -26 -38 -74 -25 -40 10 -65 35 -72 73
-13 72 65 144 130 119z m245 -98 c-27 -50 -61 -115 -76 -143 -24 -48 -30 -53
-60 -53 -18 0 -33 3 -33 6 0 3 14 32 31 64 l30 57 -30 52 c-17 28 -37 65 -46
81 l-16 30 35 0 c30 0 37 -6 61 -45 14 -25 30 -43 36 -40 5 4 18 24 29 45 19
38 39 50 72 42 14 -3 9 -18 -33 -96z m-444 71 c10 -14 15 -46 15 -94 l0 -73
-30 0 c-30 0 -30 0 -30 56 0 63 -13 94 -38 94 -31 0 -42 -22 -42 -87 l0 -63
-30 0 -30 0 0 94 0 93 85 1 c76 1 86 -2 100 -21z m-3865 -1322 l0 -895 -190 0
-190 0 0 895 0 895 190 0 190 0 0 -895z m548 840 c98 -41 152 -142 131 -245
-19 -93 -114 -170 -209 -170 -76 0 -154 50 -191 121 -24 47 -25 138 -3 185 48
101 171 150 272 109z m-1670 -115 c96 -16 166 -46 222 -97 59 -53 84 -97 105
-185 40 -171 1 -328 -106 -421 -60 -52 -66 -41 56 -88 80 -31 154 -104 185
-184 20 -51 24 -78 24 -180 1 -103 -3 -128 -22 -177 -27 -67 -105 -157 -168
-194 -139 -81 -229 -94 -676 -94 l-358 0 0 808 c0 445 3 812 7 815 10 11 662
8 731 -3z m2492 -350 l5 -165 75 3 c41 2 90 0 108 -3 l33 -6 -3 -152 -3 -152
-107 -3 c-104 -3 -108 -4 -108 -25 0 -12 -1 -188 -3 -392 l-2 -370 -190 0
-190 0 -2 375 c-1 206 -2 383 -3 392 0 14 -12 18 -62 20 l-63 3 -2 140 c-2 77
1 146 6 154 5 8 32 16 65 19 l56 4 0 142 c0 77 3 151 6 164 l6 22 187 -2 186
-3 5 -165z m-726 -166 c14 -6 16 -64 16 -555 l0 -549 -190 0 -190 0 0 549 c0
430 3 550 13 554 18 8 332 8 351 1z m2158 -2 c15 -6 -23 -69 -232 -385 -138
-208 -250 -382 -250 -387 0 -6 93 -11 228 -12 l227 -3 3 -157 3 -158 -556 0
c-305 0 -555 2 -555 4 0 2 115 177 255 387 140 210 255 386 255 391 0 4 -99 8
-219 8 -190 0 -220 2 -225 16 -3 9 -6 76 -6 149 0 117 2 135 18 144 19 12
1026 14 1054 3z m1283 -4 c7 -6 -16 -41 -327 -512 -87 -132 -158 -246 -158
-253 0 -10 46 -13 224 -13 l224 0 7 -135 c4 -74 5 -146 1 -160 l-6 -25 -551 0
c-446 0 -550 2 -546 13 3 7 114 177 247 377 134 201 245 373 248 382 4 16 -12
18 -214 20 l-219 3 -3 149 c-2 113 1 152 10 158 15 10 1053 6 1063 -4z"/>
<path d="M3532 2434 c-24 -17 -29 -53 -10 -72 19 -19 66 -15 78 7 14 28 13 38
-10 61 -24 24 -29 24 -58 4z"/>
<path d="M4253 2453 c-27 -10 -13 -33 20 -33 40 0 51 8 36 27 -12 13 -33 16
-56 6z"/>
<path d="M5028 2439 c-21 -12 -24 -59 -6 -77 19 -19 55 -14 72 9 16 23 12 47
-12 67 -19 14 -31 15 -54 1z"/>
<path d="M5419 2431 c-20 -16 -22 -23 -14 -47 18 -52 95 -42 95 12 0 20 -32
54 -51 54 -4 0 -17 -9 -30 -19z"/>
<path d="M5685 2430 c-24 -27 -13 -68 22 -76 51 -13 82 38 47 77 -22 24 -46
24 -69 -1z"/>
<path d="M5955 2451 c-11 -18 5 -31 36 -31 24 0 30 4 27 18 -4 19 -52 29 -63
13z"/>
<path d="M1020 1558 c0 -2 -1 -73 -2 -158 l-2 -155 69 -3 c39 -2 87 2 108 9
133 44 140 241 11 295 -27 11 -183 21 -184 12z"/>
<path d="M1020 918 c-1 -1 -2 -79 -3 -173 l-2 -170 85 -3 c217 -9 320 50 320
184 0 49 -36 108 -83 135 -38 22 -56 24 -179 27 -76 2 -138 2 -138 0z"/>
</g>
</svg>
