
<svg version="1.0" xmlns="http://www.w3.org/2000/svg"
 width="603.000000pt" height="90.000000pt" viewBox="0 0 603.000000 90.000000"
 preserveAspectRatio="xMidYMid meet">

<g transform="translate(0.000000,90.000000) scale(0.100000,-0.100000)"
fill="white" stroke="none">
<path d="M0 450 l0 -450 3015 0 3015 0 0 450 0 450 -3015 0 -3015 0 0 -450z
m850 364 c0 -4 -75 -146 -167 -315 l-168 -309 -67 0 c-38 0 -68 2 -68 4 0 5
306 571 326 604 13 19 23 22 79 22 36 0 65 -3 65 -6z m240 3 c0 -2 -75 -143
-168 -313 l-168 -309 -71 -3 -71 -3 171 316 171 315 68 0 c37 0 68 -1 68 -3z
m319 -178 c17 -6 31 -12 31 -14 0 -13 -41 -95 -47 -95 -4 0 -27 7 -51 15 -43
15 -96 11 -90 -7 2 -5 32 -19 68 -31 79 -27 106 -58 96 -113 -18 -92 -129
-135 -273 -104 -75 17 -78 20 -53 71 13 24 24 46 26 48 1 2 23 -4 47 -14 46
-17 114 -17 109 0 -2 6 -25 17 -52 26 -27 9 -60 23 -73 32 -62 40 -33 147 48
183 37 16 170 18 214 3z m1075 -12 c101 -57 101 -212 1 -295 -92 -75 -256 -66
-315 18 -63 89 -15 232 95 281 59 27 168 25 219 -4z m589 9 c37 -15 72 -50 63
-64 -3 -5 -22 -21 -44 -35 l-38 -27 -38 19 c-30 16 -43 17 -67 9 -37 -13 -59
-44 -59 -82 0 -62 62 -86 114 -45 l27 22 40 -39 39 -38 -22 -23 c-80 -85 -273
-62 -321 40 -43 91 8 213 108 258 48 22 152 25 198 5z m2051 0 c19 -8 44 -24
56 -36 l21 -21 -45 -35 c-50 -38 -58 -40 -75 -20 -29 34 -117 20 -140 -22 -30
-56 1 -112 61 -112 24 0 27 4 34 45 l6 45 59 0 c67 0 66 3 46 -95 -17 -81 -48
-100 -163 -100 -70 0 -85 3 -121 27 -115 76 -86 257 52 319 49 23 161 25 209
5z m-3330 -23 c-14 -63 -13 -62 -67 -65 l-52 -3 -24 -127 -25 -128 -68 0 c-37
0 -68 2 -68 4 0 2 11 58 25 126 14 68 25 124 25 126 0 2 -23 4 -51 4 l-51 0 6
31 c3 17 6 38 6 45 0 11 33 14 175 14 l175 0 -6 -27z m286 9 c26 -12 39 -28
49 -58 13 -37 13 -46 -3 -88 -11 -29 -28 -52 -47 -63 -16 -10 -29 -21 -29 -26
0 -5 12 -28 26 -53 l26 -44 -71 0 -70 0 -27 45 c-14 25 -29 43 -34 40 -4 -2
-10 -23 -14 -45 l-6 -40 -69 0 -68 0 35 175 36 175 115 0 c90 0 124 -4 151
-18z m677 6 c-2 -7 -19 -86 -37 -175 l-33 -163 -69 0 c-61 0 -69 2 -64 18 3 9
19 88 37 175 l33 157 69 0 c51 0 68 -3 64 -12z m549 -25 c-3 -21 -9 -48 -12
-60 -6 -22 -3 -23 44 -23 l50 0 7 46 c11 74 10 74 81 74 43 0 64 -4 64 -12 0
-7 -14 -85 -32 -175 l-32 -163 -69 0 c-67 0 -69 1 -64 22 4 13 9 42 13 66 l7
42 -46 0 -45 0 -14 -62 -13 -63 -68 -3 c-37 -2 -67 -1 -67 1 0 5 58 296 65
325 5 20 11 22 71 22 l67 0 -7 -37z m741 -8 l-10 -45 -52 0 -52 0 -22 -112
c-32 -162 -22 -148 -97 -148 -76 0 -73 -11 -40 147 l23 112 -51 3 -52 3 9 43
8 42 173 0 173 0 -10 -45z m298 -121 c21 -91 41 -167 45 -169 3 -2 21 73 40
166 l33 169 116 0 c143 0 179 -14 200 -76 13 -37 13 -46 -3 -88 -11 -29 -28
-52 -47 -63 -16 -10 -29 -21 -29 -26 0 -5 12 -28 26 -53 l26 -44 -71 0 -70 0
-27 45 c-14 25 -29 43 -34 40 -4 -2 -10 -23 -14 -45 l-6 -40 -139 0 -140 0 -3
28 c-3 26 -6 27 -65 30 -60 3 -62 2 -78 -28 -15 -29 -18 -30 -85 -30 -39 0
-70 2 -70 5 0 2 30 51 67 107 36 57 86 133 109 171 l44 67 68 0 68 0 39 -166z
m1192 149 c-3 -10 -8 -30 -11 -45 -6 -28 -7 -28 -90 -28 -81 0 -96 -6 -96 -36
0 -2 34 -4 76 -4 l77 0 -7 -31 c-3 -17 -6 -38 -6 -45 0 -11 -19 -14 -80 -14
-73 0 -80 -2 -80 -20 0 -18 7 -20 86 -20 l87 0 -7 -31 c-3 -17 -6 -38 -6 -45
0 -11 -31 -14 -159 -14 l-158 0 35 175 36 175 154 0 c141 0 153 -1 149 -17z
m353 3 c0 -7 -3 -28 -6 -45 -6 -30 -8 -31 -60 -31 -30 0 -54 -2 -54 -4 0 -2
-11 -58 -25 -126 -14 -68 -25 -124 -25 -126 0 -2 -31 -4 -69 -4 l-68 0 23 113
c32 155 34 147 -27 147 -43 0 -50 2 -45 18 3 9 8 29 12 45 l6 27 169 0 c137 0
169 -3 169 -14z"/>
<path d="M2334 540 c-51 -20 -72 -101 -36 -133 54 -49 133 11 122 93 -4 33
-50 55 -86 40z"/>
<path d="M1926 528 c-11 -42 -7 -58 15 -58 31 0 59 19 59 40 0 39 -64 54 -74
18z"/>
<path d="M4576 528 c-11 -42 -7 -58 15 -58 31 0 59 19 59 40 0 39 -64 54 -74
18z"/>
<path d="M4190 471 c-14 -27 -13 -31 10 -31 15 0 20 7 20 25 0 30 -15 33 -30
6z"/>
</g>
</svg>
